<svg width="818" height="97" viewBox="0 0 818 97" fill="none" xmlns="http://www.w3.org/2000/svg">
<path d="M782.28 77.0428C764.533 77.0428 754.698 65.1735 754.698 47.8782C754.698 30.3568 764.42 18.6005 781.489 18.6005C794.828 18.6005 802.402 25.496 804.662 34.9915H805.341V0.174805H817.549V75.9124H806.358V59.7475H805.567C803.193 70.9386 794.941 77.0428 782.28 77.0428ZM767.02 47.8782C767.02 61.3301 773.915 65.8517 786.011 65.8517C797.993 65.8517 805.341 60.1997 805.341 48.4434V47.539C805.341 35.5567 798.332 29.6785 785.785 29.6785C774.028 29.6785 767.02 34.3132 767.02 47.8782Z" fill="#011A2B"/>
<path d="M710.178 75.9125H697.97V19.731H709.161V34.8785H709.952C711.648 25.8352 717.752 18.6006 729.282 18.6006C742.056 18.6006 747.595 27.7569 747.595 38.3828V45.7305H735.499V40.7567C735.499 32.7307 732.108 29.0004 723.743 29.0004C714.135 29.0004 710.178 34.3133 710.178 44.374V75.9125Z" fill="#011A2B"/>
<path d="M648.186 77.0429C636.542 77.0429 629.195 71.6169 629.195 62.3475C629.195 53.6433 636.203 49.1217 647.281 47.8783L672.829 45.1653V41.8871C672.829 32.6177 668.759 29.3395 658.02 29.3395C647.621 29.3395 642.534 32.7307 642.534 40.9827V41.4349H630.438V40.9827C630.438 28.2091 641.064 18.6006 658.925 18.6006C676.785 18.6006 684.811 28.3221 684.811 41.774V75.9125H673.62V61.8954H672.829C669.89 71.3908 660.959 77.0429 648.186 77.0429ZM641.403 61.5562C641.403 66.0779 644.455 68.2257 651.464 68.2257C664.238 68.2257 672.829 63.4779 672.829 52.3999L650.786 54.8868C644.455 55.6781 641.403 57.1476 641.403 61.5562Z" fill="#011A2B"/>
<path d="M526.064 75.9124H482.091V0.174805H524.481C538.95 0.174805 547.655 6.84424 547.655 18.8266C547.655 27.7568 542.681 34.4263 531.151 35.7828V36.5741C544.037 38.0436 550.368 45.0521 550.368 54.9998C550.368 67.9995 541.663 75.9124 526.064 75.9124ZM494.186 11.1398V31.9394H522.786C531.264 31.9394 535.559 28.6612 535.559 21.5396C535.559 14.418 531.603 11.1398 523.125 11.1398H494.186ZM494.186 42V64.9474H524.707C533.751 64.9474 538.159 61.5562 538.159 53.3042C538.159 45.3913 533.638 42 524.707 42H494.186Z" fill="#011A2B"/>
<path d="M433.831 70.8256C417.101 70.8256 407.153 60.3128 407.153 44.7131C407.153 29.1134 417.553 18.6006 434.622 18.6006C446.379 18.6006 455.196 23.9135 457.231 33.7481H457.909V19.731H469.1V69.3561C469.1 88.2339 457.344 96.2599 438.918 96.2599C422.301 96.2599 410.771 88.46 410.771 74.8951H422.866C422.866 83.0341 427.614 86.0862 439.596 86.0862C452.37 86.0862 457.004 82.5819 457.004 70.0343V56.2433H456.213C454.178 64.7214 446.605 70.8256 433.831 70.8256ZM419.475 44.7131C419.475 56.2433 426.257 60.3128 437.787 60.3128C450.222 60.3128 457.004 55.1129 457.004 45.1653V43.5827C457.004 34.0872 449.996 29.2265 438.127 29.2265C426.37 29.2265 419.475 33.1829 419.475 44.7131Z" fill="#011A2B"/>
<path d="M349.815 75.9125H337.607V19.731H348.798V37.1393H349.589C351.285 27.6439 358.746 18.6006 372.989 18.6006C388.589 18.6006 396.275 29.1134 396.275 42.1131V75.9125H384.067V45.3913C384.067 34.8785 379.319 29.5656 367.676 29.5656C355.354 29.5656 349.815 35.8959 349.815 48.1043V75.9125Z" fill="#011A2B"/>
<path d="M324.04 13.1745H311.832V0.174805H324.04V13.1745ZM324.04 75.9124H311.832V19.7309H324.04V75.9124Z" fill="#011A2B"/>
<path d="M236.902 75.9119H221.755L204.911 19.7305H217.572L226.954 51.6081L229.554 66.0773H230.459L234.641 50.4777L246.397 19.7305H261.997L273.866 50.4777L278.049 66.0773H278.953L281.553 51.6081L290.936 19.7305H303.37L286.301 75.9119H271.154L258.832 43.5822L254.536 29.7911H253.632L249.337 43.5822L236.902 75.9119Z" fill="#011A2B"/>
<path d="M160.213 77.0429C148.57 77.0429 141.222 71.6169 141.222 62.3475C141.222 53.6433 148.231 49.1217 159.309 47.8783L184.856 45.1653V41.8871C184.856 32.6177 180.787 29.3395 170.048 29.3395C159.648 29.3395 154.561 32.7307 154.561 40.9827V41.4349H142.466V40.9827C142.466 28.2091 153.092 18.6006 170.952 18.6006C188.813 18.6006 196.839 28.3221 196.839 41.774V75.9125H185.648V61.8954H184.856C181.917 71.3908 172.987 77.0429 160.213 77.0429ZM153.431 61.5562C153.431 66.0779 156.483 68.2257 163.492 68.2257C176.265 68.2257 184.856 63.4779 184.856 52.3999L162.813 54.8868C156.483 55.6781 153.431 57.1476 153.431 61.5562Z" fill="#011A2B"/>
<path d="M96.3642 75.9125H84.1558V19.731H95.3468V34.8785H96.1381C97.8337 25.8352 103.938 18.6006 115.468 18.6006C128.242 18.6006 133.781 27.7569 133.781 38.3828V45.7305H121.685V40.7567C121.685 32.7307 118.294 29.0004 109.929 29.0004C100.321 29.0004 96.3642 34.3133 96.3642 44.374V75.9125Z" fill="#011A2B"/>
<path d="M34.4776 75.9124H0V0.174805H34.4776C57.9901 0.174805 72.7985 14.6441 72.7985 38.0436C72.7985 61.4431 57.9901 75.9124 34.4776 75.9124ZM34.4776 11.1398H12.0954V64.9474H34.4776C51.9989 64.9474 59.9118 57.4867 59.9118 38.0436C59.9118 18.6005 51.9989 11.1398 34.4776 11.1398Z" fill="#011A2B"/>
<circle cx="589.079" cy="48.8174" r="27.7424" stroke="#011A2B" stroke-width="2.30228"/>
<path d="M591.041 20.96C597.372 26.7924 609.413 44.259 603.243 72.5309" stroke="#011A2B" stroke-width="2.30228"/>
<path d="M560.881 54.2272C559.615 54.4958 556.092 55.5165 555.816 56.5295C555.54 57.5425 559.617 58.7167 560.883 59.1771C564.22 60.3905 572.554 61.3182 583.79 59.7527C595.025 58.1872 606.659 53.3831 612.683 49.968C614.87 48.3564 622.053 42.6007 622.238 40.7589C622.422 38.9171 617.786 39.6462 615.791 40.1834" stroke="#011A2B" stroke-width="2.30228"/>
<path d="M598.744 55.2635C602.888 52.4086 603.271 46.6683 602.773 44.2125L604.154 43.8672C604.983 47.8271 607.262 50.6589 608.183 51.5798L609.104 52.8461C607.078 54.5037 605.881 58.832 605.65 60.7889H604.154C604.246 57.3815 600.777 56.4913 598.974 56.6448L598.744 55.2635Z" fill="#011A2B" stroke="#011A2B" stroke-width="0.690683"/>
</svg>
