<svg viewBox="0 0 875 847" fill="none" xmlns="http://www.w3.org/2000/svg">
<circle cx="438.074" cy="423.5" r="130.102" stroke="#011A2B" stroke-width="10.7968"/>
<path d="M447.252 292.857C476.944 320.209 533.411 402.121 504.476 534.706" stroke="#011A2B" stroke-width="10.7968"/>
<path d="M305.817 448.873C299.879 450.132 283.358 454.919 282.063 459.669C280.767 464.42 299.887 469.926 305.825 472.086C321.473 477.776 360.56 482.127 413.249 474.785C465.937 467.443 520.497 444.914 548.749 428.899C559.006 421.341 592.692 394.349 593.556 385.711C594.419 377.074 572.682 380.493 563.324 383.012" stroke="#011A2B" stroke-width="10.7968"/>
<path d="M483.374 453.73C502.808 440.342 504.607 413.422 502.268 401.906L508.746 400.286C512.633 418.857 523.322 432.137 527.64 436.455L531.959 442.394C522.458 450.167 516.844 470.465 515.764 479.643H508.746C509.178 463.663 492.911 459.489 484.453 460.208L483.374 453.73Z" fill="#011A2B" stroke="#011A2B" stroke-width="3.23904"/>
</svg>
