<svg xmlns="http://www.w3.org/2000/svg" fill="none" viewBox="276.6 287.46 322.38 271.54">   <circle cx="438.074" cy="423.5" r="130.102" stroke="#011A2B" stroke-width="10.797"/>   <path stroke="#011A2B" stroke-width="10.797" d="M447.252 292.857c29.692 27.352 86.159 109.264 57.224 241.849"/>   <path stroke="#011A2B" stroke-width="10.797" d="M305.817 448.873c-5.938 1.259-22.459 6.046-23.754 10.796-1.296 4.751 17.824 10.257 23.762 12.417 15.648 5.69 54.735 10.041 107.424 2.699 52.688-7.342 107.248-29.871 135.5-45.886 10.257-7.558 43.943-34.55 44.807-43.188.863-8.637-20.874-5.218-30.232-2.699"/>   <path fill="#011A2B" stroke="#011A2B" stroke-width="3.239" d="M483.374 453.73c19.434-13.388 21.233-40.308 18.894-51.824l6.478-1.62c3.887 18.571 14.576 31.851 18.894 36.169l4.319 5.939c-9.501 7.773-15.115 28.071-16.195 37.249h-7.018c.432-15.98-15.835-20.154-24.293-19.435l-1.079-6.478Z"/> </svg>