<svg width="818" height="97" viewBox="0 0 818 97" fill="none" xmlns="http://www.w3.org/2000/svg">
<path d="M782.28 76.868C764.532 76.868 754.698 64.9987 754.698 47.7034C754.698 30.182 764.419 18.4257 781.489 18.4257C794.827 18.4257 802.401 25.3212 804.662 34.8167H805.34V0H817.549V75.7376H806.358V59.5727H805.566C803.192 70.7638 794.94 76.868 782.28 76.868ZM767.019 47.7034C767.019 61.1553 773.915 65.6769 786.01 65.6769C797.992 65.6769 805.34 60.0249 805.34 48.2686V47.3642C805.34 35.3819 798.332 29.5037 785.784 29.5037C774.028 29.5037 767.019 34.1384 767.019 47.7034Z" fill="white"/>
<path d="M710.178 75.7377H697.969V19.5562H709.161V34.7037H709.952C711.647 25.6604 717.752 18.4258 729.282 18.4258C742.056 18.4258 747.595 27.5821 747.595 38.208V45.5557H735.499V40.5819C735.499 32.5559 732.108 28.8256 723.743 28.8256C714.134 28.8256 710.178 34.1385 710.178 44.1992V75.7377Z" fill="white"/>
<path d="M648.186 76.8681C636.542 76.8681 629.195 71.4421 629.195 62.1727C629.195 53.4685 636.203 48.9469 647.281 47.7034L672.829 44.9905V41.7123C672.829 32.4429 668.759 29.1647 658.02 29.1647C647.621 29.1647 642.534 32.5559 642.534 40.8079V41.2601H630.438V40.8079C630.438 28.0343 641.064 18.4258 658.925 18.4258C676.785 18.4258 684.811 28.1473 684.811 41.5992V75.7377H673.62V61.7205H672.829C669.89 71.216 660.959 76.8681 648.186 76.8681ZM641.403 61.3814C641.403 65.9031 644.455 68.0509 651.464 68.0509C664.238 68.0509 672.829 63.3031 672.829 52.2251L650.786 54.712C644.455 55.5033 641.403 56.9728 641.403 61.3814Z" fill="white"/>
<path d="M526.064 75.7376H482.091V0H524.481C538.95 0 547.655 6.66943 547.655 18.6518C547.655 27.582 542.681 34.2515 531.151 35.608V36.3993C544.037 37.8688 550.368 44.8773 550.368 54.825C550.368 67.8247 541.663 75.7376 526.064 75.7376ZM494.186 10.965V31.7646H522.786C531.264 31.7646 535.559 28.4864 535.559 21.3648C535.559 14.2432 531.603 10.965 523.125 10.965H494.186ZM494.186 41.8252V64.7726H524.707C533.751 64.7726 538.159 61.3814 538.159 53.1293C538.159 45.2165 533.638 41.8252 524.707 41.8252H494.186Z" fill="white"/>
<path d="M433.831 70.6508C417.101 70.6508 407.153 60.138 407.153 44.5383C407.153 28.9386 417.553 18.4258 434.622 18.4258C446.378 18.4258 455.196 23.7387 457.23 33.5733H457.909V19.5562H469.1V69.1813C469.1 88.0591 457.343 96.0851 438.918 96.0851C422.301 96.0851 410.77 88.2852 410.77 74.7203H422.866C422.866 82.8593 427.614 85.9114 439.596 85.9114C452.37 85.9114 457.004 82.4071 457.004 69.8595V56.0685H456.213C454.178 64.5466 446.604 70.6508 433.831 70.6508ZM419.475 44.5383C419.475 56.0685 426.257 60.138 437.787 60.138C450.222 60.138 457.004 54.9381 457.004 44.9905V43.4079C457.004 33.9124 449.996 29.0517 438.126 29.0517C426.37 29.0517 419.475 33.0081 419.475 44.5383Z" fill="white"/>
<path d="M349.815 75.7377H337.607V19.5562H348.798V36.9645H349.589C351.285 27.4691 358.746 18.4258 372.989 18.4258C388.589 18.4258 396.275 28.9386 396.275 41.9383V75.7377H384.067V45.2165C384.067 34.7037 379.319 29.3908 367.676 29.3908C355.354 29.3908 349.815 35.7211 349.815 47.9295V75.7377Z" fill="white"/>
<path d="M324.04 12.9997H311.832V0H324.04V12.9997ZM324.04 75.7376H311.832V19.5561H324.04V75.7376Z" fill="white"/>
<path d="M236.902 75.7371H221.755L204.911 19.5557H217.572L226.954 51.4333L229.554 65.9025H230.459L234.641 50.3029L246.397 19.5557H261.997L273.866 50.3029L278.049 65.9025H278.953L281.553 51.4333L290.936 19.5557H303.37L286.301 75.7371H271.154L258.832 43.4073L254.536 29.6163H253.632L249.337 43.4073L236.902 75.7371Z" fill="white"/>
<path d="M160.213 76.8681C148.57 76.8681 141.222 71.4421 141.222 62.1727C141.222 53.4685 148.231 48.9469 159.309 47.7034L184.856 44.9905V41.7123C184.856 32.4429 180.787 29.1647 170.048 29.1647C159.648 29.1647 154.561 32.5559 154.561 40.8079V41.2601H142.466V40.8079C142.466 28.0343 153.091 18.4258 170.952 18.4258C188.812 18.4258 196.838 28.1473 196.838 41.5992V75.7377H185.647V61.7205H184.856C181.917 71.216 172.987 76.8681 160.213 76.8681ZM153.431 61.3814C153.431 65.9031 156.483 68.0509 163.491 68.0509C176.265 68.0509 184.856 63.3031 184.856 52.2251L162.813 54.712C156.483 55.5033 153.431 56.9728 153.431 61.3814Z" fill="white"/>
<path d="M96.3642 75.7377H84.1558V19.5562H95.3468V34.7037H96.1381C97.8337 25.6604 103.938 18.4258 115.468 18.4258C128.242 18.4258 133.781 27.5821 133.781 38.208V45.5557H121.685V40.5819C121.685 32.5559 118.294 28.8256 109.929 28.8256C100.321 28.8256 96.3642 34.1385 96.3642 44.1992V75.7377Z" fill="white"/>
<path d="M34.4776 75.7376H0V0H34.4776C57.9901 0 72.7985 14.4693 72.7985 37.8688C72.7985 61.2683 57.9901 75.7376 34.4776 75.7376ZM34.4776 10.965H12.0954V64.7726H34.4776C51.9989 64.7726 59.9118 57.3119 59.9118 37.8688C59.9118 18.4257 51.9989 10.965 34.4776 10.965Z" fill="white"/>
<circle cx="589.079" cy="48.6416" r="27.7424" stroke="white" stroke-width="2.30228"/>
<path d="M591.041 20.7842C597.372 26.6166 609.413 44.0832 603.243 72.3552" stroke="white" stroke-width="2.30228"/>
<path d="M560.881 54.0524C559.615 54.321 556.092 55.3417 555.816 56.3547C555.54 57.3677 559.617 58.5419 560.883 59.0023C564.22 60.2157 572.555 61.1434 583.79 59.5779C595.025 58.0123 606.659 53.2083 612.683 49.7932C614.87 48.1816 622.054 42.4259 622.238 40.5841C622.422 38.7423 617.787 39.4714 615.791 40.0086" stroke="white" stroke-width="2.30228"/>
<path d="M598.744 55.0877C602.888 52.2328 603.271 46.4925 602.773 44.0367L604.154 43.6914C604.983 47.6513 607.262 50.4831 608.183 51.404L609.104 52.6703C607.078 54.3279 605.881 58.6562 605.65 60.6131H604.154C604.246 57.2058 600.777 56.3156 598.974 56.469L598.744 55.0877Z" fill="white" stroke="white" stroke-width="0.690683"/>
</svg>
