<svg xmlns="http://www.w3.org/2000/svg" fill="none" viewBox="276.59 287.46 322.81 271.91">
<circle cx="438.284" cy="423.682" r="130.277" stroke="white" stroke-width="10.8113"/>
<path d="M447.475 292.864C477.206 320.253 533.749 402.275 504.775 535.038" stroke="white" stroke-width="10.8113"/>
<path d="M305.85 449.088C299.903 450.35 283.36 455.143 282.063 459.9C280.766 464.657 299.911 470.17 305.857 472.333C321.526 478.03 360.666 482.387 413.425 475.035C466.185 467.684 520.818 445.124 549.108 429.087C559.379 421.519 593.11 394.491 593.975 385.842C594.84 377.193 573.073 380.616 563.703 383.139" stroke="white" stroke-width="10.8113"/>
<path d="M483.645 453.954C503.105 440.548 504.907 413.591 502.564 402.059L509.051 400.438C512.943 419.033 523.647 432.331 527.971 436.656L532.296 442.602C522.782 450.386 517.16 470.711 516.079 479.901H509.051C509.484 463.9 493.195 459.72 484.726 460.44L483.645 453.954Z" fill="white" stroke="white" stroke-width="3.2434"/>
</svg>